<?xml version="1.0" encoding="utf-8"?>
<!-- Generator: Adobe Illustrator 21.0.0, SVG Export Plug-In . SVG Version: 6.00 Build 0)  -->
<svg version="1.1" id="Logo" xmlns="http://www.w3.org/2000/svg" xmlns:xlink="http://www.w3.org/1999/xlink" x="0px" y="0px"
	 viewBox="0 0 83.5 87.2" style="enable-background:new 0 0 83.5 87.2;" xml:space="preserve">
<style type="text/css">
	#LetterB{
			fill: none;
			stroke: #F2F2F2;
			stroke-width: 3;
			stroke-miterlimit: 10;

			stroke-dasharray: 305.724;
			stroke-dashoffset: 305.724;
			animation: draw 3s linear forwards;
	}

@supports(animation: draw){
	svg:hover #LetterB {
		animation: draw 3s linear forwards infinite;
	}

}


	@keyframes draw {
	  from {
	    stroke-dashoffset: 305.724;
	  }
	  to {
	    stroke-dashoffset: 0;
	  }
	}


</style>

<a xmlns="http://www.w3.org/2000/svg" id="logo-svg" xmlns:xlink="http://www.w3.org/1999/xlink" target="_top">
		<rect x="0" y="0" width="100%" height="100%" fill-opacity="0"/>
</a>

<path id="LetterB" class="st0" d="M13.9,36.6V1h45.6c3,0,5.6,0.6,8,1.9c2.4,1.3,4.4,2.9,6.1,5c1.7,2,3,4.4,3.9,7
	c0.9,2.6,1.4,5.2,1.4,7.9c0,4.2-1,8.1-3.1,11.7c-2.1,3.6-5.1,6.3-9.1,8.1c4.9,1.4,8.7,4,11.6,7.7c2.8,3.7,4.3,8.4,4.3,14
	c0,3.6-0.7,6.8-2.2,9.5c-1.4,2.7-3.4,5-5.9,6.8c-2.5,1.8-5.4,3.2-8.8,4.2c-3.3,1-6.9,1.4-10.6,1.4H13.9V49.6 M30.4,15.2v21.5H0h52.5
	c2.8,0,5.2-1,7.1-2.9c2-1.9,2.9-4.6,2.9-7.9c0-3.3-0.9-5.9-2.7-7.8c-1.8-1.9-4-2.9-6.7-2.9H30.4z M65.8,61.1c0-1.5-0.3-3-0.8-4.4
	c-0.5-1.4-1.2-2.6-2.1-3.7c-0.9-1-1.9-1.9-3.1-2.5c-1.2-0.6-2.5-0.9-4-0.9H0h30.4v22.4H55c1.5,0,2.9-0.3,4.3-0.8
	c1.3-0.6,2.5-1.3,3.4-2.3c1-1,1.7-2.2,2.3-3.5C65.6,64.1,65.8,62.6,65.8,61.1z"/>

</svg>
